<svg xmlns="http://www.w3.org/2000/svg" xmlns:xlink="http://www.w3.org/1999/xlink" width="500" zoomAndPan="magnify" viewBox="0 0 375 374.999991" height="500" preserveAspectRatio="xMidYMid meet" version="1.0"><defs><clipPath id="4dc92bb7c6"><path d="M 0 44 L 375 44 L 375 331.945312 L 0 331.945312 Z M 0 44 " clip-rule="nonzero"/></clipPath></defs><g clip-path="url(#4dc92bb7c6)"><path fill="#1d4ed8" d="M 349.167969 160.707031 L 349.167969 129.242188 C 349.167969 116.148438 338.453125 105.433594 325.359375 105.433594 L 111.90625 105.433594 L 264.691406 88.761719 L 264.691406 61.039062 C 264.691406 55.578125 262.328125 50.882812 257.949219 47.625 C 253.566406 44.367188 248.390625 43.457031 243.15625 45.035156 L 54.355469 101.847656 C 47.179688 104.007812 42.457031 110.359375 42.457031 117.855469 L 42.457031 171.746094 L 106.605469 171.746094 C 117.601562 171.746094 126.589844 180.742188 126.589844 191.730469 C 126.589844 202.726562 117.59375 211.714844 106.605469 211.714844 L 19.984375 211.714844 C 8.992188 211.71875 0 220.714844 0 231.703125 C 0 242.691406 8.992188 251.6875 19.984375 251.6875 L 163.070312 251.6875 C 174.066406 251.6875 183.050781 260.679688 183.050781 271.667969 C 183.050781 282.65625 174.058594 291.652344 163.070312 291.652344 L 104.867188 291.652344 C 93.871094 291.652344 84.882812 300.644531 84.882812 311.636719 C 84.882812 322.628906 93.878906 331.617188 104.867188 331.617188 L 325.351562 331.617188 C 338.449219 331.617188 349.164062 320.902344 349.164062 307.808594 L 349.164062 276.347656 L 304.996094 276.347656 C 301.097656 276.347656 297.914062 273.160156 297.914062 269.261719 C 297.914062 265.363281 301.097656 262.179688 304.996094 262.179688 L 361.503906 262.179688 C 368.941406 262.179688 375.011719 256.109375 375.011719 248.671875 L 375.011719 188.382812 C 375.011719 180.945312 368.949219 174.875 361.503906 174.875 L 280.515625 174.875 C 276.617188 174.875 273.421875 171.6875 273.421875 167.789062 C 273.421875 163.890625 276.609375 160.699219 280.515625 160.699219 L 349.167969 160.699219 Z M 278.355469 206.132812 C 271.507812 206.132812 265.953125 211.6875 265.953125 218.535156 C 265.953125 225.382812 271.507812 230.9375 278.355469 230.9375 C 285.203125 230.9375 290.757812 225.382812 290.757812 218.535156 C 290.757812 211.679688 285.203125 206.132812 278.355469 206.132812 Z M 248.875 218.527344 C 248.875 202.3125 262.140625 189.046875 278.355469 189.046875 L 360.84375 189.046875 L 360.84375 248.011719 L 278.355469 248.011719 C 262.148438 248.011719 248.875 234.746094 248.875 218.527344 Z M 248.875 218.527344 " fill-opacity="1" fill-rule="evenodd"/></g></svg>